HIERARCHY
ROOT Hips
{
	OFFSET	0.00	0.00	0.00
	CHANNELS 6 Xposition Yposition Zposition Zrotation Xrotation Yrotation
	JOINT LeftUpLeg
	{
		OFFSET	 0.126116	-0.014019	-0.065224
		CHANNELS 3 Zrotation Xrotation Yrotation
		JOINT LeftLeg
		{
			OFFSET	 0.000000	 0.000000	 0.569914
			CHANNELS 3 Zrotation Xrotation Yrotation
			JOINT LeftFoot
			{
				OFFSET	 0.000000	 0.000000	 0.544423
				CHANNELS 3 Zrotation Xrotation Yrotation
				JOINT LeftToeBase
				{
					OFFSET	 0.000000	 0.000000	 0.207117
					CHANNELS 3 Zrotation Xrotation Yrotation
					End Site
					{
						OFFSET	 0.000000	 0.000000	 0.207117
					}
				}
			}
		}
	}
	JOINT RightUpLeg
	{
		OFFSET	-0.124023	-0.008373	-0.065224
		CHANNELS 3 Zrotation Xrotation Yrotation
		JOINT RightLeg
		{
			OFFSET	 0.000000	 0.000000	 0.570047
			CHANNELS 3 Zrotation Xrotation Yrotation
			JOINT RightFoot
			{
				OFFSET	 0.000000	 0.000000	 0.544354
				CHANNELS 3 Zrotation Xrotation Yrotation
				JOINT RightToeBase
				{
					OFFSET	 0.000000	 0.000000	 0.207540
					CHANNELS 3 Zrotation Xrotation Yrotation
					End Site
					{
						OFFSET	 0.000000	 0.000000	 0.207540
					}
				}
			}
		}
	}
	JOINT Spine
	{
		OFFSET	 0.000184	-0.007763	 0.117403
		CHANNELS 3 Zrotation Xrotation Yrotation
		JOINT Spine1
		{
			OFFSET	 0.000000	 0.000000	 0.137269
			CHANNELS 3 Zrotation Xrotation Yrotation
			JOINT Spine2
			{
				OFFSET	 0.000000	 0.000000	 0.156879
				CHANNELS 3 Zrotation Xrotation Yrotation
				JOINT LeftShoulder
				{
					OFFSET	 0.080501	-0.002496	 0.160144
					CHANNELS 3 Zrotation Xrotation Yrotation
					JOINT LeftArm
					{
						OFFSET	 0.000000	 0.000000	 0.164363
						CHANNELS 3 Zrotation Xrotation Yrotation
						JOINT LeftForeArm
						{
							OFFSET	 0.000000	 0.000000	 0.364576
							CHANNELS 3 Zrotation Xrotation Yrotation
							JOINT LeftHand
							{
								OFFSET	 0.000000	 0.000000	 0.360812
								CHANNELS 3 Zrotation Xrotation Yrotation
								JOINT LeftHandIndex1
								{
									OFFSET	 0.000000	 0.000000	 0.086006
									CHANNELS 3 Zrotation Xrotation Yrotation
									JOINT LeftHandIndex2
									{
										OFFSET	 0.000000	 0.000000	 0.047236
										CHANNELS 3 Zrotation Xrotation Yrotation
										JOINT LeftHandIndex3
										{
											OFFSET	-0.004284	-0.000551	 0.038166
											CHANNELS 3 Zrotation Xrotation Yrotation
											End Site
											{
												OFFSET	-0.004284	-0.000551	 0.038166
											}
										}
									}
								}
							}
						}
					}
				}
				JOINT Neck
				{
					OFFSET	 0.000000	 0.000000	 0.176489
					CHANNELS 3 Zrotation Xrotation Yrotation
					JOINT Head
					{
						OFFSET	 0.000000	-0.001747	 0.077940
						CHANNELS 3 Zrotation Xrotation Yrotation
						End Site
						{
							OFFSET	 0.000000	-0.001747	 0.077940
						}
					}
				}
				JOINT RightShoulder
				{
					OFFSET	-0.080363	 0.000306	 0.159706
					CHANNELS 3 Zrotation Xrotation Yrotation
					JOINT RightArm
					{
						OFFSET	 0.000000	 0.000000	 0.164196
						CHANNELS 3 Zrotation Xrotation Yrotation
						JOINT RightForeArm
						{
							OFFSET	 0.000000	 0.000000	 0.365611
							CHANNELS 3 Zrotation Xrotation Yrotation
							JOINT RightHand
							{
								OFFSET	 0.000000	 0.000000	 0.360648
								CHANNELS 3 Zrotation Xrotation Yrotation
								JOINT RightHandIndex1
								{
									OFFSET	 0.000000	 0.000000	 0.069977
									CHANNELS 3 Zrotation Xrotation Yrotation
									JOINT RightHandIndex2
									{
										OFFSET	 0.000000	 0.000000	 0.052305
										CHANNELS 3 Zrotation Xrotation Yrotation
										JOINT RightHandIndex3
										{
											OFFSET	 0.009002	-0.000782	 0.042196
											CHANNELS 3 Zrotation Xrotation Yrotation
											End Site
											{
												OFFSET	 0.009002	-0.000782	 0.042196
											}
										}
									}
								}
							}
						}
					}
				}
			}
		}
	}
}
MOTION
Frames:    13
Frame Time: 0.03333334
-10.321650	-23.049780	-0.469999	-56.348560	 0.797652	 0.545338	 2.096796	-33.621720	 172.340200	-6.182924	-68.413970	-6.749715	 177.178500	 86.765660	 179.919900	-2.325398	 37.367770	-0.207186	-0.286384	-35.228220	-177.424300	 1.796494	-73.089530	 4.336590	-177.977200	 85.393840	 179.579300	 2.404171	 21.847710	-0.136171	 35.757650	 14.278460	 1.230302	 1.044156	 7.652354	-1.989312	 1.466646	 4.727293	 0.036546	-138.258100	 89.547590	-130.156600	 49.451000	 61.179340	-77.540820	-9.044435	-3.823083	-20.646850	 0.825924	-2.218847	-5.361778	-3.812334	 37.924440	-2.927599	-2.450526	 36.184240	 0.754587	-1.378229	 35.397820	-2.634230	 1.556859	 2.536448	-3.140746	 0.948285	 7.884202	 2.784565	 93.954540	 85.942670	 171.485200	-54.130640	 70.454370	 73.383900	-10.647100	-13.996420	 21.013790	-27.273910	-3.208791	 9.542695	 6.437017	 35.671460	-0.771858	 2.830251	 35.756010	-7.813440	-2.350882	 35.473990	 5.254307
-10.319560	-23.050040	-0.462080	-56.956940	 1.808593	 0.466143	 2.290122	-34.081870	 172.426500	-5.550823	-67.225120	-5.908749	 176.768500	 87.213650	-179.474700	-2.335474	 36.256020	-0.179464	 0.058126	-35.585210	-177.544600	 1.595290	-71.408010	 4.337303	-177.515900	 85.716960	 179.256000	 2.405497	 20.932830	-0.154527	 34.355850	 14.315710	 1.150030	 1.063757	 7.499025	-1.976258	 1.570156	 4.576349	 0.041197	-131.124600	 89.484510	-137.281800	 48.250320	 61.193280	-76.774080	-6.869209	-4.685431	-20.372280	 1.149036	-2.231417	-5.358916	-3.812334	 37.924440	-2.927599	-2.450526	 36.184240	 0.754587	-1.378229	 35.397820	-2.634230	 1.675565	 2.385712	-3.112186	 1.044115	 7.755016	 3.120154	 94.097830	 85.981220	 171.258200	-54.074390	 70.663020	 73.265600	-12.952060	-14.728610	 20.530520	-27.512670	-3.210924	 9.538088	 6.437017	 35.671460	-0.771858	 2.830251	 35.756010	-7.813440	-2.350882	 35.473990	 5.254307
-10.317190	-23.050320	-0.453820	-57.529840	 2.903012	 0.320446	 2.478196	-34.638140	 172.621400	-4.964717	-66.054620	-5.124314	 176.111100	 87.699560	-178.604400	-2.343895	 35.251440	-0.154946	 0.415211	-36.085120	-177.543100	 1.379613	-69.809840	 4.324524	-177.016700	 86.078690	 178.883300	 2.406127	 20.397520	-0.165206	 32.601510	 14.303400	 1.103811	 1.060275	 7.347404	-1.939777	 1.675407	 4.433707	 0.046050	-126.221300	 89.428700	-142.200400	 46.971360	 61.131420	-75.926130	-4.578631	-5.546064	-20.068450	 1.385623	-2.242674	-5.356388	-3.812334	 37.924440	-2.927599	-2.450526	 36.184240	 0.754587	-1.378229	 35.397820	-2.634230	 1.789417	 2.251708	-3.058287	 1.152842	 7.625639	 3.511832	 94.236110	 86.015080	 171.037000	-54.020920	 70.929710	 73.034960	-15.276130	-15.430330	 20.015540	-27.623300	-3.213127	 9.534317	 6.437017	 35.671460	-0.771858	 2.830251	 35.756010	-7.813440	-2.350882	 35.473990	 5.254307
-10.314560	-23.050780	-0.445316	-58.177420	 4.019192	 0.099839	 2.723695	-35.143360	 172.889900	-4.506313	-64.845830	-4.428305	 174.941900	 88.219960	-177.229400	-2.351637	 34.257140	-0.131135	 0.838335	-36.694210	-177.415500	 0.893306	-68.480060	 4.109514	-176.097100	 86.596760	 177.986500	 2.406478	 20.053110	-0.172051	 30.462660	 14.305770	 1.111700	 1.074957	 7.209943	-1.879169	 1.787656	 4.286883	 0.051434	-122.703400	 89.379460	-145.741600	 45.667960	 61.016770	-75.169400	-2.270850	-6.405828	-19.767160	 1.454201	-2.252944	-5.354948	-3.812334	 37.924440	-2.927599	-2.450526	 36.184240	 0.754587	-1.378229	 35.397820	-2.634230	 1.912442	 2.127896	-2.983377	 1.267005	 7.475542	 3.935622	 94.344180	 86.042400	 170.867500	-54.020280	 71.260820	 72.760010	-17.737650	-16.129280	 19.426220	-27.683340	-3.215842	 9.529980	 6.437017	 35.671460	-0.771858	 2.830251	 35.756010	-7.813440	-2.350882	 35.473990	 5.254307
-10.312400	-23.051510	-0.438085	-58.818730	 4.906538	-0.126447	 3.033283	-35.442220	 173.180300	-4.299622	-63.786190	-3.942671	 173.073000	 88.679730	-175.213000	-2.357712	 33.415950	-0.111345	 1.253079	-37.268400	-177.237800	 0.211819	-67.555080	 3.723331	-174.749900	 87.235790	 176.540900	 2.406758	 19.733340	-0.178388	 28.291770	 14.403300	 1.170173	 1.134401	 7.138143	-1.817456	 1.892346	 4.166990	 0.056430	-120.612000	 89.342990	-147.840900	 44.562980	 60.901990	-74.667460	-0.204318	-7.177978	-19.484570	 1.481489	-2.262426	-5.353795	-3.812334	 37.924440	-2.927599	-2.450526	 36.184240	 0.754587	-1.378229	 35.397820	-2.634230	 2.035571	 2.024364	-2.917975	 1.358629	 7.350111	 4.287801	 94.416730	 86.062290	 170.757600	-53.949670	 71.578280	 72.426960	-20.106560	-16.753150	 18.805300	-27.835660	-3.218961	 9.524289	 6.437017	 35.671460	-0.771858	 2.830251	 35.756010	-7.813440	-2.350882	 35.473990	 5.254307
-10.310570	-23.052290	-0.431527	-59.462730	 5.647771	-0.356600	 3.413982	-35.582050	 173.491000	-4.230198	-62.768050	-3.544851	 169.502000	 89.111550	-171.516400	-2.362391	 32.728030	-0.095371	 1.620753	-37.796100	-177.030100	-0.589041	-66.702540	 3.195469	-173.123800	 87.793010	 174.737800	 2.406995	 19.428290	-0.184428	 25.860570	 14.610970	 1.277533	 1.211977	 7.129567	-1.751490	 1.991193	 4.071790	 0.061034	-119.291500	 89.315570	-149.161400	 43.544090	 60.818270	-74.367980	 2.011493	-7.999911	-19.147440	 1.689097	-2.273701	-5.351056	-3.812334	 37.924440	-2.927599	-2.450526	 36.184240	 0.754587	-1.378229	 35.397820	-2.634230	 2.152606	 1.922091	-2.872986	 1.438219	 7.265491	 4.562396	 94.475720	 86.081030	 170.673400	-53.824230	 71.907500	 72.059460	-22.597860	-17.345590	 18.092640	-28.071850	-3.223161	 9.515435	 6.437017	 35.671460	-0.771858	 2.830251	 35.756010	-7.813440	-2.350882	 35.473990	 5.254307
-10.309210	-23.053190	-0.426003	-59.993970	 6.273837	-0.544029	 3.793934	-35.627130	 173.762800	-4.178628	-61.834140	-3.176429	 161.652100	 89.481120	-163.535500	-2.365621	 32.227790	-0.083881	 1.842980	-38.178040	-176.745900	-1.328879	-65.885970	 2.620502	-171.404500	 88.225020	 172.802900	 2.407120	 19.249260	-0.187962	 23.199020	 14.838060	 1.375568	 1.258081	 7.165285	-1.687122	 2.066299	 4.011568	 0.064424	-118.524600	 89.301990	-149.945700	 42.657950	 60.811160	-74.302080	 4.299301	-8.836502	-18.738910	 2.102893	-2.287736	-5.346268	-3.812334	 37.924440	-2.927599	-2.450526	 36.184240	 0.754587	-1.378229	 35.397820	-2.634230	 2.236552	 1.862095	-2.832556	 1.505326	 7.203125	 4.705709	 94.531140	 86.101020	 170.599600	-53.599500	 72.259350	 71.589230	-25.106720	-17.863090	 17.311400	-28.370430	-3.228322	 9.503635	 6.437017	 35.671460	-0.771858	 2.830251	 35.756010	-7.813440	-2.350882	 35.473990	 5.254307
-10.308490	-23.053960	-0.420502	-60.351690	 6.882886	-0.655130	 4.139995	-35.709390	 173.964000	-4.023000	-60.905850	-2.743438	 133.653900	 89.774450	-135.357400	-2.368044	 31.838670	-0.075001	 1.885415	-38.272900	-176.672600	-1.977122	-64.945790	 2.017821	-169.282400	 88.590000	 170.441200	 2.407111	 19.261120	-0.187728	 19.961810	 15.031060	 1.388682	 1.232158	 7.242023	-1.650008	 2.108361	 3.990745	 0.066119	-118.144900	 89.303670	-150.376400	 41.843740	 60.921010	-74.486300	 6.728197	-9.708430	-18.204430	 2.621523	-2.304275	-5.339720	-3.812334	 37.924440	-2.927599	-2.450526	 36.184240	 0.754587	-1.378229	 35.397820	-2.634230	 2.265787	 1.876718	-2.765286	 1.571825	 7.139700	 4.681720	 94.605000	 86.129150	 170.504100	-53.183360	 72.696430	 70.866510	-27.867900	-18.322230	 16.375700	-28.753120	-3.234740	 9.488380	 6.437017	 35.671460	-0.771858	 2.830251	 35.756010	-7.813440	-2.350882	 35.473990	 5.254307
-10.308090	-23.054400	-0.416422	-60.455260	 7.363695	-0.675686	 4.325371	-35.864640	 174.029100	-3.820804	-60.215760	-2.396835	 72.410490	 89.833310	-73.956500	-2.369128	 31.659910	-0.070939	 1.769101	-38.315380	-176.594200	-2.277473	-64.187770	 1.627551	-167.130700	 88.826810	 168.128500	 2.407056	 19.334810	-0.186273	 17.038080	 15.098230	 1.325756	 1.156632	 7.313856	-1.661984	 2.111674	 4.001465	 0.066023	-118.139500	 89.318150	-150.454600	 41.309670	 61.035290	-74.741280	 8.658018	-10.362110	-17.727950	 2.968512	-2.317076	-5.334593	-3.812334	 37.924440	-2.927599	-2.450526	 36.184240	 0.754587	-1.378229	 35.397820	-2.634230	 2.237926	 1.930504	-2.706340	 1.622219	 7.100274	 4.587426	 94.675830	 86.150960	 170.404800	-52.658660	 73.114920	 70.039040	-30.138140	-18.609910	 15.554530	-29.100680	-3.240449	 9.474676	 6.437017	 35.671460	-0.771858	 2.830251	 35.756010	-7.813440	-2.350882	 35.473990	 5.254307
-10.307590	-23.054330	-0.411635	-60.362690	 7.925096	-0.676361	 4.445335	-36.122820	 174.096300	-3.513294	-59.404900	-2.002230	 29.742050	 89.677360	-31.097470	-2.369109	 31.662660	-0.071005	 1.456596	-38.499770	-176.583600	-2.321033	-63.317830	 1.321857	-163.343200	 89.087210	 164.212800	 2.406914	 19.542260	-0.182171	 12.769350	 15.167730	 1.253218	 1.012948	 7.388582	-1.752526	 2.087043	 4.035260	 0.064640	-119.932500	 89.375360	-148.761400	 40.863690	 61.162500	-75.280130	 11.087330	-11.281710	-17.317790	 3.229281	-2.330181	-5.330007	-3.812334	 37.924440	-2.927599	-2.450526	 36.184240	 0.754587	-1.378229	 35.397820	-2.634230	 2.154776	 2.012511	-2.712873	 1.674106	 7.080859	 4.450251	 94.641240	 86.106550	 170.392100	-51.666160	 73.772590	 68.574570	-33.110840	-18.985660	 14.493340	-29.593980	-3.248038	 9.455535	 6.437017	 35.671460	-0.771858	 2.830251	 35.756010	-7.813440	-2.350882	 35.473990	 5.254307
-10.307760	-23.054410	-0.408944	-60.246480	 8.219048	-0.687476	 4.471926	-36.186080	 174.142200	-3.330075	-58.973190	-1.807283	 21.575260	 89.567950	-22.832360	-2.368712	 31.729450	-0.072513	 1.253738	-38.566740	-176.572400	-2.223507	-62.853440	 1.242679	-160.352700	 89.219150	 161.192700	 2.406734	 19.761040	-0.177839	 9.918523	 15.199810	 1.249832	 0.915933	 7.417078	-1.831500	 2.061038	 4.048975	 0.063585	-122.910700	 89.437680	-145.840500	 40.792430	 61.200610	-75.782260	 12.561980	-11.917580	-17.202260	 3.302006	-2.334635	-5.328675	-3.812334	 37.924440	-2.927599	-2.450526	 36.184240	 0.754587	-1.378229	 35.397820	-2.634230	 2.087128	 2.032456	-2.782224	 1.695413	 7.088796	 4.384668	 94.556790	 86.042550	 170.443500	-50.882150	 74.242030	 67.475600	-34.899880	-19.228630	 13.863320	-29.906770	-3.252483	 9.443311	 6.437017	 35.671460	-0.771858	 2.830251	 35.756010	-7.813440	-2.350882	 35.473990	 5.254307
-10.308410	-23.054630	-0.406108	-60.072160	 8.511640	-0.695603	 4.457081	-36.304650	 174.151500	-3.095514	-58.553510	-1.596878	 16.708750	 89.449280	-17.853520	-2.368916	 31.694630	-0.071729	 1.046464	-38.518570	-176.588900	-1.900071	-62.380810	 1.366709	-158.406400	 89.301990	 159.322100	 2.406312	 20.225820	-0.168623	 6.423513	 15.219170	 1.263681	 0.805727	 7.432368	-1.932053	 2.025725	 4.053604	 0.062416	-128.879800	 89.523170	-139.931000	 40.907770	 61.197830	-76.447850	 14.311200	-12.743760	-17.188410	 3.341223	-2.333627	-5.328612	-3.812334	 37.924440	-2.927599	-2.450526	 36.184240	 0.754587	-1.378229	 35.397820	-2.634230	 2.002337	 2.028459	-2.889785	 1.713436	 7.105043	 4.268633	 94.426260	 85.947010	 170.533300	-49.808330	 74.839130	 66.017990	-36.911980	-19.525390	 13.161900	-30.263740	-3.256848	 9.428866	 6.437017	 35.671460	-0.771858	 2.830251	 35.756010	-7.813440	-2.350882	 35.473990	 5.254307
-10.309820	-23.055130	-0.403360	-59.839250	 8.775764	-0.679189	 4.409430	-36.267090	 174.121400	-2.814438	-58.170430	-1.376941	 13.808000	 89.334410	-14.829330	-2.370865	 31.367730	-0.064334	 0.866710	-38.405820	-176.660800	-1.419838	-61.950630	 1.654253	-156.724700	 89.351390	 157.807600	 2.405396	 21.012510	-0.152932	 2.519547	 15.206560	 1.260759	 0.688205	 7.428416	-2.035325	 1.982802	 4.044577	 0.061248	-139.545600	 89.614370	-129.319800	 41.287020	 61.118550	-77.202480	 16.244420	-13.735710	-17.309640	 3.340971	-2.324571	-5.330174	-3.812334	 37.924440	-2.927599	-2.450526	 36.184240	 0.754587	-1.378229	 35.397820	-2.634230	 1.908535	 2.003150	-2.977809	 1.728229	 7.116642	 4.078800	 94.282100	 85.838300	 170.633300	-48.659280	 75.418590	 64.420170	-39.063630	-19.857890	 12.458690	-30.620160	-3.260405	 9.415331	 6.437017	 35.671460	-0.771858	 2.830251	 35.756010	-7.813440	-2.350882	 35.473990	 5.254307
